<?xml version="1.0" encoding="UTF-8" standalone="no"?>
<!-- Created with Inkscape (http://www.inkscape.org/) -->

<svg
   xmlns:dc="http://purl.org/dc/elements/1.1/"
   xmlns:cc="http://creativecommons.org/ns#"
   xmlns:rdf="http://www.w3.org/1999/02/22-rdf-syntax-ns#"
   xmlns:svg="http://www.w3.org/2000/svg"
   xmlns="http://www.w3.org/2000/svg"
   xmlns:sodipodi="http://sodipodi.sourceforge.net/DTD/sodipodi-0.dtd"
   xmlns:inkscape="http://www.inkscape.org/namespaces/inkscape"
   width="500"
   height="500"
   viewBox="0 0 132.29166 132.29167"
   version="1.1"
   id="svg3654"
   inkscape:version="0.92.4 (33fec40, 2019-01-16)"
   sodipodi:docname="boom_inkscape.svg"
   inkscape:export-filename="/home/strange-peak/Documents/challenge2019/View/image/boom_smoke.png"
   inkscape:export-xdpi="96"
   inkscape:export-ydpi="96">
  <defs
     id="defs3648" />
  <sodipodi:namedview
     id="base"
     pagecolor="#ffffff"
     bordercolor="#666666"
     borderopacity="1.0"
     inkscape:pageopacity="1"
     inkscape:pageshadow="2"
     inkscape:zoom="1.4"
     inkscape:cx="294.88631"
     inkscape:cy="247.78392"
     inkscape:document-units="mm"
     inkscape:current-layer="layer12"
     showgrid="false"
     units="px"
     inkscape:window-width="1850"
     inkscape:window-height="1009"
     inkscape:window-x="70"
     inkscape:window-y="34"
     inkscape:window-maximized="1" />
  <metadata
     id="metadata3651">
    <rdf:RDF>
      <cc:Work
         rdf:about="">
        <dc:format>image/svg+xml</dc:format>
        <dc:type
           rdf:resource="http://purl.org/dc/dcmitype/StillImage" />
        <dc:title></dc:title>
      </cc:Work>
    </rdf:RDF>
  </metadata>
  <g
     inkscape:label="red"
     inkscape:groupmode="layer"
     id="layer1"
     transform="translate(0,-164.70832)"
     sodipodi:insensitive="true"
     style="display:none">
    <path
       style="fill:#ff5555;stroke:none;stroke-width:0.40458706px;stroke-linecap:butt;stroke-linejoin:miter;stroke-opacity:1"
       d="m 27.276577,175.65692 c 8.669721,13.87156 34.100911,30.92202 34.100911,30.92202 7.689836,5.14555 10.99449,-23.69407 15.894493,-40.16973 v 0 0 c -3.047721,16.97725 -0.862898,30.09269 2.311925,43.63761 24.417064,-18.32911 6.955304,-4.98434 29.766044,-29.18806 -15.821382,34.20354 -16.679415,39.67235 -16.183477,39.59172 1.727497,6.40313 34.224957,-9.88352 34.967877,-8.38072 -22.35067,11.5291 -22.7971,14.90225 -30.055033,22.10779 1.355259,5.00917 18.287593,14.20872 31.210993,19.21789 -10.56146,-0.78494 -22.99853,-4.94601 -30.055031,0.57797 -5.216876,1.0232 8.708761,16.15143 17.050451,27.16515 -17.245001,-19.9658 -22.586401,-19.78702 -30.344025,-23.69725 -9.283416,1.48717 2.977973,24.72383 2.600917,37.85779 -3.421256,-11.11275 -8.349283,-31.08127 -15.314803,-32.97893 -7.681777,-0.22213 -8.561059,19.61371 -11.405774,25.61065 -4.125676,-24.65147 -0.852943,-28.9568 -0.733547,-33.09043 l -32.655956,30.92202 c 3.073699,-3.97537 24.677655,-23.18652 21.385317,-34.9679 C 38.82043,249.54381 22.745808,258.44749 9.0113382,262.67085 25.359158,253.62047 48.153516,243.8538 45.005433,236.96964 34.146947,235.27235 22.411014,233.28257 13.694013,232.2991 26.026656,231.4809 39.088279,230.84493 45.482997,228.54224 26.771715,223.05092 16.924285,212.49452 3.0013539,204.267 c 14.7349721,4.53642 27.9806741,12.79602 44.2155881,13.58258 8.580294,-6.33255 -14.22018,-27.9475 -19.940365,-42.19266 z"
       id="path4240"
       inkscape:connector-curvature="0"
       sodipodi:nodetypes="ccccccccccccccccccccccccccc" />
  </g>
  <g
     inkscape:groupmode="layer"
     id="layer10"
     inkscape:label="orange"
     sodipodi:insensitive="true"
     style="display:none">
    <path
       sodipodi:nodetypes="ccccccccccccccccccccccccccc"
       inkscape:connector-curvature="0"
       id="path5025"
       d="m 39.076296,27.708173 c 6.292541,10.068066 24.750662,22.443399 24.750662,22.443399 5.581332,3.734677 7.979873,-17.197309 11.536325,-29.155444 v 0 0 C 73.151228,33.31832 74.73699,42.837593 77.041296,52.668583 94.763362,39.3652 82.089498,49.05092 98.645688,31.483702 87.16242,56.30885 86.539655,60.278153 86.89961,60.219631 c 1.253828,4.647426 24.84068,-7.173529 25.37992,-6.082785 -16.22227,8.367895 -16.546288,10.816147 -21.814145,16.04598 0.983656,3.635687 13.273245,10.312782 22.653145,13.948464 -7.66558,-0.569713 -16.692488,-3.589846 -21.814141,0.419498 -3.786443,0.742645 6.320878,11.72281 12.375331,19.716642 C 91.163181,89.776124 87.286359,89.905879 81.655824,87.067807 c -6.737963,1.0794 2.161434,17.944713 1.887765,27.477413 C 81.060419,106.47954 77.483625,91.986254 72.428008,90.608924 66.852524,90.447695 66.214333,104.84468 64.149621,109.1973 61.155177,91.305096 63.530548,88.18026 63.617209,85.180049 L 39.915304,107.62345 C 42.146214,104.73809 57.826506,90.794525 55.436906,82.243524 47.454899,81.335752 35.787834,87.798098 25.819269,90.863449 37.684622,84.294622 54.228915,77.20591 51.944016,72.20934 44.062855,70.977432 35.544841,69.533243 29.217983,68.819433 38.169096,68.225578 47.649306,67.763985 52.290634,66.092682 38.709864,62.107043 31.562536,54.445141 21.457183,48.473556 32.15192,51.766118 41.765736,57.760989 53.549143,58.33188 59.776776,53.735672 43.228044,38.047402 39.076296,27.708173 Z"
       style="fill:#ff9955;stroke:none;stroke-width:0.29365191px;stroke-linecap:butt;stroke-linejoin:miter;stroke-opacity:1" />
  </g>
  <g
     inkscape:groupmode="layer"
     id="layer11"
     inkscape:label="yellow"
     sodipodi:insensitive="true"
     style="display:none">
    <path
       style="fill:#ffdd55;stroke:none;stroke-width:0.20196228px;stroke-linecap:butt;stroke-linejoin:miter;stroke-opacity:1"
       d="m 48.717014,41.042121 c 4.327762,6.924423 17.022535,15.435693 17.022535,15.435693 3.838624,2.568564 5.488246,-11.827636 7.934236,-20.051974 v 0 0 c -1.521367,8.474722 -0.430742,15.021704 1.154072,21.783077 12.188543,-9.149547 3.471955,-2.48809 14.858654,-14.570135 -7.897742,17.073767 -8.326056,19.803697 -8.078492,19.763449 0.862334,3.196317 17.084454,-4.933672 17.455316,-4.183502 -11.157043,5.755112 -11.379891,7.438924 -15.002916,11.035798 0.67652,2.500482 9.128823,7.092728 15.579948,9.593209 -5.272084,-0.391827 -11.480441,-2.468958 -15.002913,0.288513 -2.604169,0.510763 4.347251,8.062491 8.511269,13.560335 C 84.540335,83.730031 81.874009,83.819272 78.001547,81.867357 73.36744,82.609725 79.488097,94.20903 79.299879,100.76525 77.592052,95.217981 75.132072,85.250071 71.655015,84.302798 67.820417,84.19191 67.381493,94.093595 65.961466,97.087159 63.902005,84.781598 65.535692,82.63246 65.595292,80.56903 L 49.29405,96.004729 C 50.828383,94.020294 61.612675,84.430447 59.969201,78.549404 54.47949,77.925073 46.455338,82.369623 39.599348,84.477851 47.759874,79.960068 59.138392,75.084731 57.566927,71.648285 52.146575,70.801026 46.288216,69.80777 41.936851,69.316839 48.093076,68.908408 54.613195,68.590944 57.805317,67.441486 48.464996,64.70032 43.549343,59.430764 36.599276,55.32374 c 7.355422,2.264495 13.96743,6.387533 22.071595,6.780171 4.283123,-3.161093 -7.098449,-13.950872 -9.953857,-21.06179 z"
       id="path4240-5"
       inkscape:connector-curvature="0"
       sodipodi:nodetypes="ccccccccccccccccccccccccccc" />
  </g>
  <g
     inkscape:groupmode="layer"
     id="layer13"
     inkscape:label="smoke_bg"
     style="display:none"
     sodipodi:insensitive="true">
    <rect
       style="opacity:1;fill:#a49393;fill-opacity:1;fill-rule:nonzero;stroke:none;stroke-width:0.79374999;stroke-miterlimit:4;stroke-dasharray:none;stroke-opacity:1"
       id="rect5743"
       width="135.42735"
       height="134.62096"
       x="-1.3363476"
       y="-0.80855799" />
  </g>
  <g
     inkscape:groupmode="layer"
     id="layer12"
     inkscape:label="smoke"
     sodipodi:insensitive="true"
     style="display:inline">
    <path
       style="opacity:1;fill:#ac9393;fill-opacity:1;fill-rule:nonzero;stroke:none;stroke-width:0.84038001;stroke-miterlimit:4;stroke-dasharray:none;stroke-opacity:1"
       d="m 71.516458,46.763574 a 6.4994738,2.8116157 0 0 0 -6.128421,1.885186 5.4081445,4.3077051 0 0 0 -3.305591,-0.905072 5.4081445,4.3077051 0 0 0 -5.329479,3.606737 14.00956,11.330801 0 0 0 -7.608536,10.076513 14.00956,11.330801 0 0 0 0.385147,2.579224 8.633629,8.357464 0 0 0 -4.011165,7.055478 8.633629,8.357464 0 0 0 4.089682,7.094416 9.6340196,7.7674106 0 0 0 -0.463664,2.369318 9.6340196,7.7674106 0 0 0 6.088633,7.215165 12.242399,10.715044 0 0 0 11.814931,7.919921 12.242399,10.715044 0 0 0 10.704576,-5.521826 7.8197564,7.4417424 0 0 0 5.756536,2.416151 7.8197564,7.4417424 0 0 0 7.819682,-7.441431 7.8197564,7.4417424 0 0 0 -0.0244,-0.562566 12.752866,11.746821 0 0 0 3.980399,-8.517471 12.752866,11.746821 0 0 0 -1.186745,-4.915815 3.9098781,5.1070783 0 0 0 1.78728,-4.287793 3.9098781,5.1070783 0 0 0 -2.039802,-4.484722 11.022896,7.6332868 0 0 0 0.210611,-1.473839 11.022896,7.6332868 0 0 0 -2.962354,-5.197381 10.935155,5.5923442 0 0 0 -3.631323,-3.970116 6.9177383,4.0077061 0 0 0 -6.845666,-3.463416 6.9177383,4.0077061 0 0 0 -2.981453,0.395544 6.4994738,2.8116157 0 0 0 -6.118872,-1.872205 z m 0.108225,5.621136 a 10.935155,5.5923442 0 0 0 -0.02759,0.01862 14.00956,11.330801 0 0 0 -0.02865,-0.01749 6.4994738,2.8116157 0 0 0 0.05624,-0.0011 z"
       id="path5701"
       inkscape:connector-curvature="0" />
    <path
       inkscape:connector-curvature="0"
       id="path5736"
       d="m 71.36062,51.44079 a 5.2560634,2.2737272 0 0 0 -4.955996,1.524533 4.3735155,3.4836006 0 0 0 -2.673199,-0.731922 4.3735155,3.4836006 0 0 0 -4.3099,2.916734 11.329399,9.1631121 0 0 0 -6.152952,8.148782 11.329399,9.1631121 0 0 0 0.311465,2.085792 6.9819345,6.7586025 0 0 0 -3.243791,5.705698 6.9819345,6.7586025 0 0 0 3.307287,5.737189 7.790941,6.2814318 0 0 0 -0.374961,1.916044 7.790941,6.2814318 0 0 0 4.923821,5.834837 9.9003129,8.6651554 0 0 0 9.554624,6.404767 9.9003129,8.6651554 0 0 0 8.65669,-4.46545 6.3237633,6.018067 0 0 0 4.655255,1.95392 6.3237633,6.018067 0 0 0 6.323705,-6.017816 6.3237633,6.018067 0 0 0 -0.01974,-0.454943 10.313123,9.4995435 0 0 0 3.21891,-6.887997 10.313123,9.4995435 0 0 0 -0.959709,-3.975373 3.1618815,4.1300462 0 0 0 1.445356,-3.467498 3.1618815,4.1300462 0 0 0 -1.649569,-3.626754 8.9141123,6.1729672 0 0 0 0.170316,-1.191879 8.9141123,6.1729672 0 0 0 -2.395628,-4.203073 8.8431569,4.522476 0 0 0 -2.936616,-3.210597 5.5943098,3.2409942 0 0 0 -5.536026,-2.80083 5.5943098,3.2409942 0 0 0 -2.411073,0.319872 5.2560634,2.2737272 0 0 0 -4.948274,-1.514036 z m 0.08753,4.54576 a 8.8431569,4.522476 0 0 0 -0.02231,0.015 11.329399,9.1631121 0 0 0 -0.02317,-0.01421 5.2560634,2.2737272 0 0 0 0.04548,-8.9e-4 z"
       style="opacity:1;fill:#a68b8b;fill-opacity:0.94509804;fill-rule:nonzero;stroke:none;stroke-width:0.67960739;stroke-miterlimit:4;stroke-dasharray:none;stroke-opacity:1" />
    <path
       style="opacity:1;fill:#9d7f7f;fill-opacity:1;fill-rule:nonzero;stroke:none;stroke-width:0.52342832;stroke-miterlimit:4;stroke-dasharray:none;stroke-opacity:1"
       d="m 71.209238,55.984372 a 4.0481791,1.7512069 0 0 0 -3.817071,1.174185 3.3684474,2.683042 0 0 0 -2.058878,-0.563722 3.3684474,2.683042 0 0 0 -3.31945,2.246446 8.7258152,7.0573576 0 0 0 -4.738955,6.276129 8.7258152,7.0573576 0 0 0 0.239887,1.60646 5.3774316,5.2054229 0 0 0 -2.498342,4.394484 5.3774316,5.2054229 0 0 0 2.547246,4.418737 6.000522,4.8379098 0 0 0 -0.288791,1.475725 6.000522,4.8379098 0 0 0 3.792287,4.493945 7.6251439,6.6738351 0 0 0 7.358898,4.932901 7.6251439,6.6738351 0 0 0 6.667315,-3.439255 4.8705133,4.6350683 0 0 0 3.585441,1.504894 4.8705133,4.6350683 0 0 0 4.870468,-4.634875 4.8705133,4.6350683 0 0 0 -0.01521,-0.350395 7.9430866,7.3164744 0 0 0 2.47918,-5.30508 7.9430866,7.3164744 0 0 0 -0.739162,-3.061802 2.4352565,3.1809294 0 0 0 1.113202,-2.67064 2.4352565,3.1809294 0 0 0 -1.270485,-2.793297 6.8655799,4.7543712 0 0 0 0.131185,-0.917977 6.8655799,4.7543712 0 0 0 -1.845036,-3.237173 6.8109307,3.4831759 0 0 0 -2.261758,-2.472776 4.308694,2.4961884 0 0 0 -4.263805,-2.15718 4.308694,2.4961884 0 0 0 -1.856989,0.246365 4.0481791,1.7512069 0 0 0 -3.811123,-1.166099 z m 0.0674,3.501109 a 6.8109307,3.4831759 0 0 0 -0.01711,0.01162 8.7258152,7.0573576 0 0 0 -0.01795,-0.01077 4.0481791,1.7512069 0 0 0 0.03504,-6.87e-4 z"
       id="path5738"
       inkscape:connector-curvature="0" />
    <path
       inkscape:connector-curvature="0"
       id="path5740"
       d="m 70.861936,66.407884 a 1.2771504,0.55248409 0 0 0 -1.204239,0.37044 1.0627034,0.84646653 0 0 0 -0.649551,-0.177847 1.0627034,0.84646653 0 0 0 -1.047245,0.708726 2.7528866,2.2265089 0 0 0 -1.495082,1.980041 2.7528866,2.2265089 0 0 0 0.07568,0.506818 1.6965131,1.6422465 0 0 0 -0.788196,1.386405 1.6965131,1.6422465 0 0 0 0.803624,1.394057 1.8930904,1.5263006 0 0 0 -0.09111,0.465573 1.8930904,1.5263006 0 0 0 1.19642,1.417784 2.4056385,2.1055123 0 0 0 2.321641,1.556269 2.4056385,2.1055123 0 0 0 2.103456,-1.085042 1.5365866,1.4623067 0 0 0 1.131162,0.474775 1.5365866,1.4623067 0 0 0 1.536572,-1.462245 1.5365866,1.4623067 0 0 0 -0.0048,-0.110545 2.5059455,2.3082571 0 0 0 0.78215,-1.673688 2.5059455,2.3082571 0 0 0 -0.233196,-0.96596 0.76829327,1.0035438 0 0 0 0.351201,-0.842554 0.76829327,1.0035438 0 0 0 -0.400822,-0.881251 2.1660054,1.4999452 0 0 0 0.04139,-0.28961 2.1660054,1.4999452 0 0 0 -0.582086,-1.021288 2.1487643,1.0988989 0 0 0 -0.713557,-0.78013 1.3593396,0.78751653 0 0 0 -1.345177,-0.680564 1.3593396,0.78751653 0 0 0 -0.585857,0.07773 1.2771504,0.55248409 0 0 0 -1.202362,-0.367889 z m 0.02126,1.104556 a 2.1487643,1.0988989 0 0 0 -0.0054,0.0037 2.7528866,2.2265089 0 0 0 -0.0057,-0.0034 1.2771504,0.55248409 0 0 0 0.01105,-2.16e-4 z"
       style="opacity:1;fill:#735858;fill-opacity:1;fill-rule:nonzero;stroke:none;stroke-width:0.16513516;stroke-miterlimit:4;stroke-dasharray:none;stroke-opacity:1" />
  </g>
</svg>
